<?xml version="1.0" encoding="utf-8"?>
<!-- Generator: Adobe Illustrator 25.2.1, SVG Export Plug-In . SVG Version: 6.00 Build 0)  -->
<svg version="1.1" id="Layer_1" xmlns="http://www.w3.org/2000/svg" xmlns:xlink="http://www.w3.org/1999/xlink" x="0px" y="0px"
	 viewBox="0 0 300 62" style="enable-background:new 0 0 300 62;" xml:space="preserve">
<style type="text/css">
	.st0{fill:#FFFFFF;}
	.st1{fill:#000111;}
</style>
<g>
	<rect x="4" y="3.9" class="st0" width="150.8" height="41"/>
	<rect x="4" y="48.1" class="st0" width="292" height="1.5"/>
	<g>
		<path class="st1" d="M15.9,30.3c0.7,3,3,4.8,7,4.8c4.4,0,6.2-2,6.2-4.4c0-2.6-1.3-4.1-6.8-5.3c-5.8-1.3-8.1-3.1-8.1-6.5
			c0-3.3,2.7-6.2,8.3-6.2c5.9,0,8.4,3.2,8.8,6.2h-2.7c-0.5-2.4-2.2-4.2-6.1-4.2c-3.5,0-5.4,1.5-5.4,4s1.6,3.4,6.3,4.5
			c7.4,1.7,8.6,4.3,8.6,7.3c0,3.7-2.9,6.7-9.1,6.7c-6.5,0-9.1-3.4-9.6-6.8L15.9,30.3L15.9,30.3z"/>
		<path class="st1" d="M41.3,13h9.6c4.9,0,8.3,2.5,8.3,6.8c0,4.5-3.4,7-8.5,7H44v10.1h-2.7V13z M44,24.6h6.7c3.9,0,5.7-1.8,5.7-4.7
			c0-3.1-2.2-4.7-5.5-4.7H44V24.6z"/>
		<path class="st1" d="M68.8,29.1l-3.1,7.8H63L72.4,13h3.2l9.8,23.9h-2.9l-3.2-7.8C79.3,29.1,68.8,29.1,68.8,29.1z M78.7,26.9
			C76,20.2,74.6,16.8,74,15.1l0,0c-0.6,1.9-2.2,6-4.4,11.8C69.6,26.9,78.7,26.9,78.7,26.9z"/>
		<path class="st1" d="M113.5,30.3c-1.2,3.9-4.4,6.8-10,6.8c-7.6,0-11.5-5.4-11.5-12.2c0-6.5,3.9-12.3,11.6-12.3c5.9,0,9.2,3,10,7
			h-2.7c-1.1-2.9-3.1-4.9-7.4-4.9c-6.1,0-8.7,5.1-8.7,10.1c0,4.9,2.5,10.1,8.8,10.1c4.1,0,6.1-2.1,7.3-4.7L113.5,30.3L113.5,30.3z"
			/>
		<path class="st1" d="M138.7,25.4h-13.1v9.3H140l-0.4,2.2h-16.7V13h16.4v2.2h-13.8v8.1h13.1L138.7,25.4L138.7,25.4z"/>
	</g>
	<g>
		<path class="st0" d="M169.3,30.3c0.7,3,3,4.8,7,4.8c4.4,0,6.2-2,6.2-4.4c0-2.6-1.3-4.1-6.8-5.3c-5.8-1.3-8.1-3.1-8.1-6.5
			c0-3.3,2.7-6.2,8.3-6.2c5.9,0,8.4,3.2,8.8,6.2H182c-0.5-2.4-2.2-4.2-6.1-4.2c-3.5,0-5.4,1.5-5.4,4s1.6,3.4,6.3,4.5
			c7.4,1.7,8.6,4.3,8.6,7.3c0,3.7-2.9,6.7-9.1,6.7c-6.5,0-9.1-3.4-9.6-6.8L169.3,30.3L169.3,30.3z"/>
		<path class="st0" d="M210.5,25.4h-13.1v9.3h14.4l-0.4,2.2h-16.7V13h16.4v2.2h-13.8v8.1h13.1v2.1H210.5z"/>
		<path class="st0" d="M228.2,36.8L218.7,13h2.9l4.8,12.2c1.4,3.6,2.9,7.3,3.5,9.4h0.1c0.6-1.9,2.2-5.8,3.6-9.3l5-12.3h2.8
			l-9.9,23.9L228.2,36.8L228.2,36.8z"/>
		<path class="st0" d="M265.3,25.4h-13.1v9.3h14.4l-0.4,2.2h-16.7V13h16.4v2.2h-13.8v8.1h13.1v2.1H265.3z"/>
		<path class="st0" d="M275.5,36.8V13h3.7c3.9,5.7,12.8,18.3,14.4,20.9l0,0c-0.2-3.3-0.2-6.9-0.2-10.8V13h2.6v23.9h-3.4
			c-3.7-5.4-12.8-18.7-14.6-21.4l0,0c0.2,2.9,0.2,6.7,0.2,11v10.4h-2.7V36.8z"/>
	</g>
	<g>
		<path class="st0" d="M7.5,53.7H5.8v-0.6H10v0.6H8.3V58H7.5V53.7z"/>
		<path class="st0" d="M25.4,53.1h0.7v2.1h2.8v-2.1h0.7V58h-0.7v-2.3h-2.8V58h-0.7V53.1z"/>
		<path class="st0" d="M49.1,55.7h-2.7v1.7h2.9V58h-3.5v-4.9h3.5v0.6h-2.8v1.5h2.7v0.5H49.1z"/>
		<path class="st0" d="M81.6,53.1H85v0.6h-2.7v1.6h2.6v0.6h-2.6V58h-0.7C81.6,58,81.6,53.1,81.6,53.1z"/>
		<path class="st0" d="M101.3,53.1V58h-0.7v-4.9H101.3z"/>
		<path class="st0" d="M118.5,53.7h-1.7v-0.6h4.2v0.6h-1.7V58h-0.7v-4.3H118.5z"/>
		<path class="st0" d="M136.4,58v-4.9h0.9c0.8,1.1,2.4,3.6,2.7,4.1l0,0c-0.1-0.6,0-1.4,0-2.2v-1.9h0.7V58h-0.9
			c-0.7-1.1-2.5-3.7-2.8-4.3l0,0c0,0.6,0,1.4,0,2.3v2H136.4z"/>
		<path class="st0" d="M160.2,55.7h-2.7v1.7h2.9l-0.1,0.6h-3.5v-4.9h3.5v0.6h-2.8v1.5h2.7L160.2,55.7L160.2,55.7z"/>
		<path class="st0" d="M176.4,56.6c0.1,0.6,0.6,0.9,1.4,0.9c0.8,0,1.2-0.4,1.2-0.8c0-0.5-0.3-0.8-1.3-1c-1.3-0.3-1.7-0.7-1.7-1.4
			s0.6-1.3,1.8-1.3c1.3,0,1.8,0.7,1.9,1.3H179c-0.1-0.4-0.4-0.8-1.2-0.8c-0.7,0-1,0.3-1,0.7c0,0.5,0.3,0.6,1.2,0.9
			c1.5,0.3,1.8,0.9,1.8,1.5c0,0.8-0.6,1.4-2,1.4c-1.3,0-1.9-0.7-2-1.4C175.8,56.6,176.4,56.6,176.4,56.6z"/>
		<path class="st0" d="M195.8,56.6c0.1,0.6,0.6,0.9,1.4,0.9c0.8,0,1.2-0.4,1.2-0.8c0-0.5-0.3-0.8-1.3-1c-1.3-0.3-1.7-0.7-1.7-1.4
			s0.6-1.3,1.8-1.3c1.3,0,1.8,0.7,1.9,1.3h-0.7c-0.1-0.4-0.4-0.8-1.2-0.8c-0.7,0-1,0.3-1,0.7c0,0.5,0.3,0.6,1.2,0.9
			c1.5,0.3,1.8,0.9,1.8,1.5c0,0.8-0.6,1.4-2,1.4c-1.3,0-1.9-0.7-2-1.4C195.2,56.6,195.8,56.6,195.8,56.6z"/>
		<path class="st0" d="M235.6,56.6c-0.2,0.8-0.9,1.5-2.1,1.5c-1.6,0-2.4-1.1-2.4-2.5c0-1.3,0.8-2.5,2.4-2.5c1.3,0,2,0.7,2.1,1.5
			h-0.7c-0.2-0.5-0.6-0.9-1.4-0.9c-1.2,0-1.7,1-1.7,2s0.5,2,1.7,2c0.8,0,1.2-0.4,1.4-0.9h0.7V56.6z"/>
		<path class="st0" d="M251.3,53.1h0.7v4.4h2.8l-0.1,0.6h-3.4V53.1z"/>
		<path class="st0" d="M270.8,53.1v3c0,1.2,0.7,1.5,1.4,1.5c0.8,0,1.4-0.3,1.4-1.5v-3h0.7V56c0,1.6-1,2.1-2.1,2.1s-2.1-0.5-2.1-2v-3
			H270.8z"/>
		<path class="st0" d="M290.3,53.1h2.1c1.1,0,1.7,0.5,1.7,1.2c0,0.6-0.4,0.9-0.8,1.1c0.4,0.1,0.9,0.5,0.9,1.2c0,0.9-0.8,1.4-1.8,1.4
			h-2.1L290.3,53.1L290.3,53.1z M292.2,55.1c0.8,0,1.1-0.3,1.1-0.8c0-0.4-0.3-0.7-1-0.7H291v1.5H292.2z M291,57.5h1.3
			c0.7,0,1.1-0.3,1.1-0.9c0-0.5-0.4-0.9-1.3-0.9H291V57.5z"/>
	</g>
</g>
</svg>
