<?xml version="1.0" encoding="utf-8"?>
<!-- Generator: Adobe Illustrator 25.2.1, SVG Export Plug-In . SVG Version: 6.00 Build 0)  -->
<svg version="1.1" id="Layer_1" xmlns="http://www.w3.org/2000/svg" xmlns:xlink="http://www.w3.org/1999/xlink" x="0px" y="0px"
	 viewBox="0 0 624.1 493.3" style="enable-background:new 0 0 624.1 493.3;" xml:space="preserve">
<style type="text/css">
	.st0{fill:#F23849;}
</style>
<g>
	<path class="st0" d="M510.1,79.6c11.2,0,20.3-9.1,20.3-20.3s-9.1-20.3-20.3-20.3s-20.3,9.1-20.3,20.3S498.9,79.6,510.1,79.6z"/>
	<path class="st0" d="M139.3,99.9c8.4,0,15.2-6.8,15.2-15.2s-6.8-15.2-15.2-15.2s-15.2,6.8-15.2,15.2S130.9,99.9,139.3,99.9z"/>
	<path class="st0" d="M67.7,475.8h488.8c23.5,0,42.9-17.8,45.4-40.6H22.2C24.8,458,44.2,475.8,67.7,475.8L67.7,475.8z"/>
	<path class="st0" d="M479.7,171v111.7h15.2c30.8,0,55.9-25.1,55.9-55.9S525.7,171,494.9,171L479.7,171z"/>
	<path class="st0" d="M545.7,348.8c0,5.6-4.5,10.2-10.2,10.2c-5.6,0-10.2-4.5-10.2-10.2c0-5.6,4.5-10.2,10.2-10.2
		C541.1,338.6,545.7,343.2,545.7,348.8"/>
	<path class="st0" d="M494.9,379.3c0,5.6-4.5,10.2-10.2,10.2s-10.2-4.5-10.2-10.2c0-5.6,4.5-10.2,10.2-10.2S494.9,373.6,494.9,379.3
		"/>
	<path class="st0" d="M139.3,358.9c0,5.6-4.5,10.2-10.2,10.2s-10.2-4.5-10.2-10.2c0-5.6,4.5-10.2,10.2-10.2S139.3,353.3,139.3,358.9
		"/>
	<path class="st0" d="M108.9,145.6c0,5.6-4.5,10.2-10.2,10.2c-5.6,0-10.2-4.5-10.2-10.2c0-5.6,4.5-10.2,10.2-10.2
		C104.3,135.4,108.9,140,108.9,145.6"/>
	<path class="st0" d="M484.7,115.1c0,5.6-4.5,10.2-10.2,10.2c-5.6,0-10.2-4.5-10.2-10.2c0-5.6,4.5-10.2,10.2-10.2
		C480.2,105,484.7,109.5,484.7,115.1"/>
	<path class="st0" d="M220.6,54.2c0,5.6-4.5,10.2-10.2,10.2c-5.6,0-10.2-4.5-10.2-10.2c0-5.6,4.5-10.2,10.2-10.2
		C216.1,44,220.6,48.6,220.6,54.2"/>
	<path class="st0" d="M219.9,137.9c0.7,2.2,2.7,3.6,4.9,3.6c3.4,0,5.8-3.3,4.9-6.5c-4.6-15.4,1.1-31.9,14.2-41.1l29-20.4
		c16.7-11.8,24-32.8,18.1-52.3c-0.8-2.7-3.6-4.2-6.3-3.4c-2.7,0.8-4.2,3.6-3.4,6.3c4.6,15.4-1.1,31.9-14.2,41.1l-29,20.4
		C221.3,97.4,214,118.4,219.9,137.9L219.9,137.9z"/>
	<path class="st0" d="M287.8,137.9c0.7,2.2,2.7,3.6,4.9,3.6c3.4,0,5.8-3.3,4.9-6.5c-4.6-15.4,1.1-31.9,14.2-41.1l29-20.4
		c16.7-11.8,24-32.8,18.1-52.3c-0.8-2.7-3.6-4.2-6.3-3.4c-2.7,0.8-4.2,3.6-3.4,6.3c4.6,15.4-1.1,31.9-14.2,41.1l-29,20.4
		C289.2,97.4,282,118.4,287.8,137.9L287.8,137.9z"/>
	<path class="st0" d="M355.8,137.9c0.7,2.2,2.7,3.6,4.9,3.6c3.4,0,5.8-3.3,4.9-6.5c-4.6-15.4,1.1-31.9,14.2-41.1l29-20.4
		c16.7-11.8,24-32.8,18.1-52.3c-0.8-2.7-3.6-4.2-6.3-3.4c-2.7,0.8-4.2,3.6-3.4,6.3c4.6,15.4-1.1,31.9-14.2,41.1l-29,20.4
		C357.2,97.4,350,118.4,355.8,137.9L355.8,137.9z"/>
	<g>
		<path class="st0" d="M154.6,171v50.8h259.1c2.8,0,5.1,2.3,5.1,5.1c0,2.8-2.3,5.1-5.1,5.1l-259.1,0v35.6
			c0,86.8,70.6,157.5,157.5,157.5s157.5-70.6,157.5-157.5V171H154.6z M266.1,342.4c-21.7-21.9-27-52.8-11.3-68.7
			c15.7-15.7,46.5-10.5,68.3,11.3c21.7,21.9,27,52.8,11.3,68.7C318.7,369.6,287.9,364.4,266.1,342.4z M358,342.4L358,342.4
			c-5.8,5.8-12.5,10.7-19.1,14.1c12.3-13.3,12.7-34.8,2.6-54.8c5.2-6.2,12.5-13.3,23-20.7c-12.5,3.2-20.9,8.1-27.2,13.5
			c-3-4.6-6.4-8.9-10.5-13.1c-3.2-3.2-6.4-6-10.1-8.5c19.1-11.1,40.3-11.5,52.6,0.8C384.9,289.7,379.7,320.5,358,342.4z
			 M403.5,382.5c-5.6,0-10.2-4.5-10.2-10.2c0-5.6,4.5-10.2,10.2-10.2c5.6,0,10.2,4.5,10.2,10.2C413.6,377.9,409.1,382.5,403.5,382.5
			z M444.1,237c-5.6,0-10.2-4.5-10.2-10.2c0-5.6,4.5-10.2,10.2-10.2c5.6,0,10.2,4.5,10.2,10.2C454.3,232.5,449.7,237,444.1,237z"/>
		<path class="st0" d="M259.7,281c47.5,34.4,28.2,55,67.5,67.9C296.9,323.5,304.8,292.7,259.7,281z"/>
	</g>
</g>
</svg>
